<svg width="123" height="92" viewBox="0 0 123 92" fill="none" xmlns="http://www.w3.org/2000/svg">
<g clip-path="url(#clip0_726_5)">
<path fill-rule="evenodd" clip-rule="evenodd" d="M8.32 0H114.56C119.14 0 122.88 3.74 122.88 8.32V82.94C122.88 87.51 119.14 91.26 114.56 91.26H8.32C3.74 91.26 0 87.51 0 82.94V8.32C0 3.74 3.74 0 8.32 0ZM54.46 72.22L32 58.61V49.98L54.46 36.37V46.63L40.81 54.32L54.46 62.02V72.22ZM68.42 72.22L90.88 58.61V49.98L68.42 36.37V46.63L82.07 54.32L68.42 62.02V72.22ZM117.97 23.29H5.29V83.75C5.29 84.39 5.54 84.95 5.96 85.38C6.38 85.8 6.95 86.05 7.59 86.05H115.63C116.27 86.05 116.83 85.8 117.26 85.38C117.69 84.95 117.93 84.39 117.93 83.75V23.29H117.97ZM106.64 9.35C108.91 9.35 110.75 11.19 110.75 13.46C110.75 15.73 108.91 17.57 106.64 17.57C104.37 17.57 102.53 15.73 102.53 13.46C102.54 11.19 104.38 9.35 106.64 9.35ZM78.8 9.35C81.07 9.35 82.91 11.19 82.91 13.46C82.91 15.73 81.07 17.57 78.8 17.57C76.53 17.57 74.69 15.73 74.69 13.46C74.69 11.19 76.53 9.35 78.8 9.35ZM92.72 9.35C94.99 9.35 96.83 11.19 96.83 13.46C96.83 15.73 94.99 17.57 92.72 17.57C90.45 17.57 88.61 15.73 88.61 13.46C88.61 11.19 90.45 9.35 92.72 9.35Z" fill="#F7DF1E"/>
<path d="M62.5312 55.25C62.8438 55.7812 63.2812 56.1562 64 56.1562C64.625 56.1562 65.0312 55.8438 65.0312 55.4062C65.0312 54.9062 64.625 54.7188 63.9375 54.4062L63.5625 54.25C62.4688 53.7812 61.75 53.2188 61.75 52C61.75 50.875 62.5938 50 63.9375 50C64.9062 50 65.5938 50.3438 66.0625 51.2188L64.9062 51.9688C64.6562 51.5 64.375 51.3125 63.9375 51.3125C63.5 51.3125 63.2188 51.5938 63.2188 51.9688C63.2188 52.4062 63.5 52.5938 64.1562 52.875L64.5312 53.0312C65.8125 53.5938 66.5312 54.125 66.5312 55.4062C66.5312 56.75 65.4688 57.5 64.0312 57.5C62.625 57.5 61.7188 56.8438 61.2812 55.9688L62.5312 55.25ZM57.2188 55.375C57.4688 55.7812 57.6562 56.1562 58.1875 56.1562C58.6875 56.1562 59 55.9688 59 55.2188V50.0312H60.5V55.1562C60.5 56.7188 59.5938 57.4062 58.25 57.4062C57.0312 57.4062 56.3438 56.7812 56 56.0312L57.2188 55.375Z" fill="black"/>
</g>
<defs>
<clipPath id="clip0_726_5">
<rect width="122.88" height="91.26" fill="white"/>
</clipPath>
</defs>
</svg>
